<svg height="32" viewBox="0 0 32 32" width="32" xmlns="http://www.w3.org/2000/svg"><path d="m16 25a6.9908 6.9908 0 0 1 -5.833-3.1287l1.666-1.1074a5.0007 5.0007 0 0 0 8.334 0l1.666 1.1074a6.9908 6.9908 0 0 1 -5.833 3.1287z"/><path d="m20 14a2 2 0 1 0 2 2 1.9806 1.9806 0 0 0 -2-2z"/><path d="m12 14a2 2 0 1 0 2 2 1.9806 1.9806 0 0 0 -2-2z"/><path d="m30 16v-2h-2v-4a4.0045 4.0045 0 0 0 -4-4h-2v-4h-2v4h-8v-4h-2v4h-2a4.0045 4.0045 0 0 0 -4 4v4h-2v2h2v5h-2v2h2v3a4.0045 4.0045 0 0 0 4 4h16a4.0045 4.0045 0 0 0 4-4v-3h2v-2h-2v-5zm-4 10a2.0023 2.0023 0 0 1 -2 2h-16a2.0023 2.0023 0 0 1 -2-2v-16a2.0023 2.0023 0 0 1 2-2h16a2.0023 2.0023 0 0 1 2 2z"/><path d="m0 0h32v32h-32z" fill="none"/></svg>