<?xml version="1.0" encoding="UTF-8" standalone="no"?>
<svg version="1.0" width="110" height="110"
  xmlns="http://www.w3.org/2000/svg"
  xmlns:xlink="http://www.w3.org/1999/xlink"
  xml:space="preserve">
 <defs>
  <linearGradient id="linGrad" x1="55" y1="12.5" x2="55" y2="55" gradientUnits="userSpaceOnUse">
   <stop offset="0" style="stop-color:white;stop-opacity:1" />
   <stop offset="1" style="stop-color:white;stop-opacity:0" />
  </linearGradient>
  <radialGradient id="radGrad" cx="55" cy="55" r="101" fx="55" fy="80.25" gradientUnits="userSpaceOnUse">
   <stop offset="0" style="stop-color:#d5fc00;" />
   <stop offset="0.45" style="stop-color:#6bbb03;" />
   <stop offset="1" style="stop-color:#589903;" />
  </radialGradient>
 </defs>
 <circle cx="55" cy="55" r="47.5" style="fill:url(#radGrad);stroke:#296c29;stroke-width:6;" />
 <circle cx="55" cy="55" r="44" style="fill:none;stroke:#e1f0ca;stroke-width:1;stroke-opacity:0.75" />
 <polygon style="fill:#303c11;"
   points="85,55 60.8844,30.8844 42.6864,30.8844 60.3839,48.5819 25,48.5819 25,61.4181 60.3839,61.4181 42.6864,79.1156 60.8844,79.1156 85,55" />
 <path style="fill:url(#linGrad);"
   d="M 55,12.5 C 70.7275,12.5 84.4612,21.0478 91.8108,33.7498 C 84.4612,46.4518 70.7275,55.0001 55,55.0001 C 39.2725,55.0001 25.5388,46.4518 18.1892,33.7498 C 25.5388,21.0478 39.2725,12.5 55,12.5 L 55,12.5 z" />
</svg>
